<svg xmlns="http://www.w3.org/2000/svg" width="1280" height="720" viewBox="0 0 1280 720">
  <defs>
    <linearGradient id="background" x1="0" y1="0" x2="1" y2="1">
      <stop offset="0" stop-color="#e7f5ff"/>
      <stop offset="1" stop-color="#edf2ff"/>
    </linearGradient>
    <filter id="shadow" x="-10%" y="-10%" width="120%" height="120%">
      <feDropShadow dx="0" dy="10" stdDeviation="12" flood-color="#1c3d5a" flood-opacity=".16"/>
    </filter>
  </defs>
  <rect width="1280" height="720" rx="36" fill="url(#background)"/>
  <text x="640" y="88" text-anchor="middle" font-family="system-ui, sans-serif" font-size="34" font-weight="700" fill="#243b53">
    Domain decomposition preview
  </text>
  <g transform="translate(150 150)" filter="url(#shadow)">
    <rect width="980" height="430" rx="20" fill="#fff" stroke="#91a7ff" stroke-width="5"/>
    <path d="M245 0v430M490 0v430M735 0v430" stroke="#5c7cfa" stroke-width="4"/>
    <rect x="18" y="18" width="209" height="394" rx="12" fill="#d0ebff"/>
    <rect x="263" y="18" width="209" height="394" rx="12" fill="#d3f9d8"/>
    <rect x="508" y="18" width="209" height="394" rx="12" fill="#fff3bf"/>
    <rect x="753" y="18" width="209" height="394" rx="12" fill="#ffe3e3"/>
    <g font-family="ui-monospace, monospace" font-size="28" font-weight="700" fill="#334e68" text-anchor="middle">
      <text x="122" y="220">GPU 0</text>
      <text x="367" y="220">GPU 1</text>
      <text x="612" y="220">GPU 2</text>
      <text x="857" y="220">GPU 3</text>
    </g>
    <g stroke="#364fc7" stroke-width="5" fill="none" stroke-linecap="round">
      <path d="M205 95h80"/>
      <path d="m275 82 14 13-14 13"/>
      <path d="M450 335h80"/>
      <path d="m520 322 14 13-14 13"/>
      <path d="M695 95h80"/>
      <path d="m765 82 14 13-14 13"/>
    </g>
  </g>
  <text x="640" y="652" text-anchor="middle" font-family="system-ui, sans-serif" font-size="23" fill="#486581">
    A real browser-rendered image asset for the graphical writer
  </text>
</svg>
